# xmcd
#
# Track frame offsets: 
#        150
#        16315
#        30740
#        51345
#        66137
#        79030
#        97587
#        118785
#        152835
#        180225
#        193100
#
# Disc length: 2750 seconds
#
# Revision: 0
# Processed by: cddbd v1.5.2PL0 Copyright (c) Steve Scherf et al.
# Submitted via: ExactAudioCopy v0.95b3
#
DISCID=820abc0b
DTITLE=Frijid Pink  - Frijid Pink  FLAC
DYEAR=1900
DGENRE=
TTITLE0=God Gave Me You
TTITLE1=Crying Shame
TTITLE2=I'm on My Way
TTITLE3=Drivin' Blues
TTITLE4=Tell Me Why
TTITLE5=End of the Line
TTITLE6=House of the Rising Sun
TTITLE7=I Want to Be Your Lover
TTITLE8=Boozin' Blues
TTITLE9=Heartbreak Hotel
TTITLE10=Music for the People
EXTD=
EXTT0=
EXTT1=
EXTT2=
EXTT3=
EXTT4=
EXTT5=
EXTT6=
EXTT7=
EXTT8=
EXTT9=
EXTT10=
PLAYORDER=
